<svg id="visual" viewBox="0 0 900 600" width="900" height="600" xmlns="http://www.w3.org/2000/svg" xmlns:xlink="http://www.w3.org/1999/xlink" version="1.1"><rect x="0" y="0" width="900" height="600" fill="#ffffff"></rect><path d="M0 374L21.5 370.5C43 367 86 360 128.8 368.3C171.7 376.7 214.3 400.3 257.2 415.7C300 431 343 438 385.8 439.7C428.7 441.3 471.3 437.7 514.2 422.2C557 406.7 600 379.3 642.8 370.5C685.7 361.7 728.3 371.3 771.2 382.8C814 394.3 857 407.7 878.5 414.3L900 421L900 601L878.5 601C857 601 814 601 771.2 601C728.3 601 685.7 601 642.8 601C600 601 557 601 514.2 601C471.3 601 428.7 601 385.8 601C343 601 300 601 257.2 601C214.3 601 171.7 601 128.8 601C86 601 43 601 21.5 601L0 601Z" fill="#4f5bd5"></path><path d="M0 464L21.5 461.7C43 459.3 86 454.7 128.8 444.3C171.7 434 214.3 418 257.2 415.7C300 413.3 343 424.7 385.8 436.3C428.7 448 471.3 460 514.2 459.5C557 459 600 446 642.8 437.8C685.7 429.7 728.3 426.3 771.2 432.3C814 438.3 857 453.7 878.5 461.3L900 469L900 601L878.5 601C857 601 814 601 771.2 601C728.3 601 685.7 601 642.8 601C600 601 557 601 514.2 601C471.3 601 428.7 601 385.8 601C343 601 300 601 257.2 601C214.3 601 171.7 601 128.8 601C86 601 43 601 21.5 601L0 601Z" fill="#cd53b5"></path><path d="M0 465L21.5 471C43 477 86 489 128.8 492.3C171.7 495.7 214.3 490.3 257.2 486.3C300 482.3 343 479.7 385.8 476.2C428.7 472.7 471.3 468.3 514.2 463.2C557 458 600 452 642.8 453.5C685.7 455 728.3 464 771.2 474.7C814 485.3 857 497.7 878.5 503.8L900 510L900 601L878.5 601C857 601 814 601 771.2 601C728.3 601 685.7 601 642.8 601C600 601 557 601 514.2 601C471.3 601 428.7 601 385.8 601C343 601 300 601 257.2 601C214.3 601 171.7 601 128.8 601C86 601 43 601 21.5 601L0 601Z" fill="#ff6c8a"></path><path d="M0 502L21.5 504.3C43 506.7 86 511.3 128.8 510.3C171.7 509.3 214.3 502.7 257.2 507.2C300 511.7 343 527.3 385.8 531.5C428.7 535.7 471.3 528.3 514.2 520.3C557 512.3 600 503.7 642.8 503C685.7 502.3 728.3 509.7 771.2 510.3C814 511 857 505 878.5 502L900 499L900 601L878.5 601C857 601 814 601 771.2 601C728.3 601 685.7 601 642.8 601C600 601 557 601 514.2 601C471.3 601 428.7 601 385.8 601C343 601 300 601 257.2 601C214.3 601 171.7 601 128.8 601C86 601 43 601 21.5 601L0 601Z" fill="#ffa16d"></path><path d="M0 558L21.5 553C43 548 86 538 128.8 540C171.7 542 214.3 556 257.2 563.3C300 570.7 343 571.3 385.8 568C428.7 564.7 471.3 557.3 514.2 550.7C557 544 600 538 642.8 538.3C685.7 538.7 728.3 545.3 771.2 548.3C814 551.3 857 550.7 878.5 550.3L900 550L900 601L878.5 601C857 601 814 601 771.2 601C728.3 601 685.7 601 642.8 601C600 601 557 601 514.2 601C471.3 601 428.7 601 385.8 601C343 601 300 601 257.2 601C214.3 601 171.7 601 128.8 601C86 601 43 601 21.5 601L0 601Z" fill="#feda75"></path></svg>